<svg width="100" height="100" viewBox="0 0 100 100" fill="none" xmlns="http://www.w3.org/2000/svg">
<path fill-rule="evenodd" clip-rule="evenodd" d="M49.9948 0C22.3852 0 0 22.9514 0 51.268C0 73.9165 14.3249 93.1306 34.1947 99.9121C36.6956 100.381 37.6069 98.7986 37.6069 97.4376C37.6069 96.2237 37.5653 92.9983 37.5403 88.7212C23.6315 91.8186 20.6978 81.8479 20.6978 81.8479C18.4237 75.9282 15.1447 74.3517 15.1447 74.3517C10.6048 71.1689 15.488 71.2329 15.488 71.2329C20.5064 71.5977 23.1467 76.5169 23.1467 76.5169C27.6075 84.3502 34.8501 82.0868 37.6984 80.777C38.1541 77.4641 39.442 75.205 40.8734 73.9229C29.7713 72.6302 18.0971 68.2293 18.0971 48.5865C18.0971 42.991 20.0466 38.4131 23.2445 34.8293C22.7306 33.5323 21.0141 28.3208 23.7334 21.2619C23.7334 21.2619 27.9321 19.8839 37.4841 26.5182C41.4727 25.3812 45.7504 24.8116 50.001 24.7924C54.2476 24.8116 58.5253 25.3812 62.52 26.5182C72.0658 19.8839 76.2562 21.2619 76.2562 21.2619C78.9838 28.3208 77.2673 33.5323 76.7534 34.8293C79.9576 38.4131 81.8946 42.991 81.8946 48.5865C81.8946 68.2805 70.2016 72.6131 59.0621 73.8824C60.8597 75.4653 62.4576 78.5926 62.4576 83.3774C62.4576 90.2294 62.3973 95.7587 62.3973 97.4376C62.3973 98.8114 63.2961 100.407 65.8344 99.9057C85.6875 93.1114 100 73.9101 100 51.268C100 22.9514 77.6127 0 49.9948 0Z" fill="#010101"/>
</svg>
