<svg width="100" height="100" viewBox="0 0 100 100" fill="none" xmlns="http://www.w3.org/2000/svg">
<path d="M18.5928 0.056218C15.904 0.314206 13.2542 1.10381 10.8937 2.34684C9.05689 3.31625 7.56398 4.42638 6.00854 5.98995C2.52248 9.46888 0.490248 13.8547 0.0681686 18.7799C0.00563835 19.4992 -0.00999421 28.5991 0.00563835 50.6688C0.0369035 84.7389 -0.00999422 81.7838 0.50588 84.0744C2.21765 91.7359 8.28308 97.8103 15.9587 99.5224C18.2567 100.038 15.3412 99.9993 50.0142 99.9993C79.8489 99.9993 81.4435 99.9915 82.2954 99.8586C86.2192 99.241 89.4239 97.8729 92.3237 95.5588C95.9583 92.6584 98.5142 88.5853 99.5225 84.0666C100.038 81.7682 99.9993 84.6686 99.9993 50.0825C99.9993 16.372 100.023 18.3108 99.5929 16.2704C98.7644 12.2989 96.9119 8.87473 94.0199 5.98995C90.7917 2.76119 87.165 0.94745 82.3423 0.142214C81.6154 0.0249467 79.1767 0.00931108 50.405 0.00149325C33.2717 -0.00632458 18.9601 0.0171289 18.5928 0.056218ZM80.2007 7.78805C81.5607 7.87405 82.6081 8.07731 83.7102 8.46038C87.9388 9.93013 91.0184 13.4403 92.0111 17.9043L92.183 18.6939V50.0043V81.3147L92.0111 82.1043C91.0184 86.5683 87.931 90.0785 83.7102 91.5483C83.2647 91.7046 82.5456 91.9079 82.1079 92.0095L81.3184 92.1815H50.0142H18.71L17.9206 92.0095C12.8869 90.8916 9.13505 87.139 8.01733 82.1043L7.84537 81.3147V50.0043V18.6939L8.01733 17.9043C8.90057 13.9485 11.4409 10.7041 14.9973 9.00763C16.5683 8.26494 17.944 7.90532 19.648 7.79587C21.0393 7.70205 78.8172 7.69424 80.2007 7.78805Z" fill="black"/>
<path d="M77.6056 16.0828C74.7371 16.5206 72.6267 19.0848 72.783 21.9383C72.8377 22.8843 72.9862 23.4472 73.4005 24.2837C73.8538 25.1984 74.8621 26.2147 75.7844 26.6916C77.4649 27.5593 79.3799 27.5593 81.0682 26.6994C81.9124 26.2616 82.9832 25.2062 83.4053 24.4009C84.4683 22.3527 84.2729 20.0308 82.8816 18.2014C81.717 16.6535 79.5519 15.7857 77.6056 16.0828Z" fill="black"/>
<path d="M47.7475 21.2035C40.6737 21.8523 34.4989 24.7137 29.6137 29.5998C26.3934 32.8207 24.0485 36.6124 22.6259 40.8966C21.6176 43.9377 21.1721 46.7287 21.1721 50.0043C21.1721 52.5373 21.4301 54.6716 22.0006 56.9622C24.9943 68.9469 35.1867 77.656 47.513 78.7739C48.6698 78.8756 51.3586 78.8756 52.5154 78.7739C65.1621 77.6247 75.5031 68.5013 78.2232 56.1022C79.0908 52.1308 79.0751 47.8153 78.1841 43.7501C76.3629 35.4632 70.9306 28.3724 63.3644 24.4088C60.402 22.853 57.1974 21.8523 53.6097 21.3442C52.7421 21.2269 48.6151 21.1253 47.7475 21.2035ZM52.6795 29.0916C56.5564 29.5998 60.1675 31.1321 63.2237 33.5556C64.0757 34.2358 65.7796 35.9401 66.4597 36.7922C68.9218 39.8959 70.4772 43.625 70.9696 47.6199C71.0947 48.6284 71.0947 51.3803 70.9696 52.3888C70.657 54.9061 70.0161 57.0638 68.8905 59.3466C66.4128 64.3657 62.0278 68.2199 56.7675 69.9789C50.5848 72.0428 43.8237 71.1828 38.4461 67.6335C36.7265 66.4999 34.8037 64.7566 33.5687 63.2165C31.177 60.2222 29.6762 56.6964 29.0978 52.7015C28.8868 51.2865 28.9102 48.5346 29.1369 47.0336C29.4808 44.7586 30.0514 42.8901 31.0519 40.8184C32.1384 38.5668 33.3264 36.9017 35.1242 35.1114C36.8359 33.3993 38.3914 32.2657 40.4783 31.2103C43.0499 29.9047 45.5511 29.2167 48.6854 28.9431C49.3733 28.8806 51.7885 28.9744 52.6795 29.0916Z" fill="black"/>
</svg>
