<svg width="100" height="100" viewBox="0 0 100 100" fill="none" xmlns="http://www.w3.org/2000/svg">
<path fill-rule="evenodd" clip-rule="evenodd" d="M82.6898 23.3102C82.6898 26.6242 80.0031 29.3102 76.6898 29.3102C73.3766 29.3102 70.6898 26.6242 70.6898 23.3102C70.6898 19.9961 73.3766 17.3102 76.6898 17.3102C80.0039 17.3102 82.6898 19.9961 82.6898 23.3102ZM50 66.6664C40.7953 66.6664 33.3336 59.2047 33.3336 50C33.3336 40.7953 40.7953 33.3336 50 33.3336C59.2047 33.3336 66.6664 40.7953 66.6664 50C66.6664 59.2047 59.2047 66.6664 50 66.6664ZM50 24.3242C35.8195 24.3242 24.3242 35.8195 24.3242 50C24.3242 64.1805 35.8195 75.6758 50 75.6758C64.1805 75.6758 75.6758 64.1805 75.6758 50C75.6758 35.8195 64.1805 24.3242 50 24.3242ZM50 9.00937C63.3508 9.00937 64.932 9.06016 70.2039 9.30078C75.0789 9.52344 77.7266 10.3375 79.4883 11.0227C81.8219 11.9297 83.4875 13.0133 85.2375 14.7633C86.9875 16.5125 88.0711 18.1781 88.9781 20.5125C89.6625 22.2742 90.4773 24.9219 90.7 29.7969C90.9406 35.0695 90.9914 36.6508 90.9914 50.0016C90.9914 63.3523 90.9406 64.9336 90.7 70.2055C90.4773 75.0805 89.6633 77.7281 88.9781 79.4898C88.0711 81.8234 86.9875 83.4891 85.2375 85.2391C83.4883 86.9891 81.8227 88.0727 79.4883 88.9797C77.7266 89.6641 75.0789 90.4789 70.2039 90.7016C64.932 90.9422 63.3508 90.993 50 90.993C36.6484 90.993 35.0672 90.9422 29.7953 90.7016C24.9203 90.4789 22.2727 89.6648 20.5109 88.9797C18.1773 88.0727 16.5117 86.9891 14.7617 85.2391C13.0125 83.4898 11.9281 81.8242 11.0211 79.4898C10.3367 77.7281 9.52187 75.0805 9.29922 70.2055C9.05859 64.9328 9.00781 63.3516 9.00781 50.0016C9.00781 36.6508 9.05859 35.0695 9.29922 29.7969C9.52187 24.9219 10.3359 22.2742 11.0211 20.5125C11.9281 18.1789 13.0117 16.5133 14.7617 14.7633C16.5109 13.0133 18.1766 11.9297 20.5109 11.0227C22.2727 10.3383 24.9203 9.52344 29.7953 9.30078C35.068 9.06016 36.6492 9.00937 50 9.00937ZM50 0C36.4211 0 34.718 0.0578125 29.3852 0.300781C24.0633 0.54375 20.4281 1.38906 17.2484 2.625C13.9602 3.90234 11.1719 5.6125 8.39219 8.39219C5.6125 11.1719 3.90234 13.9602 2.625 17.2484C1.38906 20.4289 0.54375 24.0633 0.300781 29.3852C0.0578125 34.718 0 36.4211 0 50C0 63.5789 0.0578125 65.282 0.300781 70.6148C0.54375 75.9367 1.38906 79.5711 2.625 82.7516C3.90234 86.0398 5.6125 88.8281 8.39219 91.6078C11.1719 94.3875 13.9602 96.0969 17.2484 97.375C20.4289 98.6109 24.0633 99.4562 29.3852 99.6992C34.718 99.9422 36.4211 100 50 100C63.5789 100 65.282 99.9422 70.6148 99.6992C75.9367 99.4562 79.5711 98.6109 82.7516 97.375C86.0398 96.0969 88.8281 94.3875 91.6078 91.6078C94.3875 88.8281 96.0969 86.0398 97.375 82.7516C98.6109 79.5711 99.4562 75.9367 99.6992 70.6148C99.9422 65.282 100 63.5789 100 50C100 36.4211 99.9422 34.718 99.6992 29.3852C99.4562 24.0633 98.6109 20.4289 97.375 17.2484C96.0969 13.9602 94.3875 11.1719 91.6078 8.39219C88.8281 5.6125 86.0398 3.90312 82.7516 2.625C79.5711 1.38906 75.9367 0.54375 70.6148 0.300781C65.282 0.0578125 63.5789 0 50 0Z" fill="url(#paint0_radial_1_5)"/>
<defs>
<radialGradient id="paint0_radial_1_5" cx="0" cy="0" r="1" gradientUnits="userSpaceOnUse" gradientTransform="translate(14.9305 100.347) scale(127.775)">
<stop stop-color="#FFB140"/>
<stop offset="0.2559" stop-color="#FF5445"/>
<stop offset="0.599" stop-color="#FC2B82"/>
<stop offset="1" stop-color="#8E40B7"/>
</radialGradient>
</defs>
</svg>
