<svg width="100" height="100" viewBox="0 0 100 100" fill="none" xmlns="http://www.w3.org/2000/svg">
<path d="M17.2579 17.5291C20.4827 20.0509 21.7043 19.8728 27.7924 19.4821L85.1884 16.1792C86.41 16.1792 85.3937 15.0074 84.9832 14.8105L75.4487 8.20151C73.6343 6.83284 71.1912 5.28917 66.5233 5.66103L10.9613 9.56706C8.92537 9.74518 8.51819 10.7233 9.33255 11.5045L17.2579 17.5291ZM20.701 30.3722V88.294C20.701 91.4032 22.3134 92.575 25.9618 92.3782L89.042 88.8784C92.6903 88.6815 93.1138 86.5504 93.1138 84.013V26.4818C93.1138 23.9413 92.0942 22.5914 89.8563 22.7882L23.9454 26.4818C21.5023 26.6786 20.7043 27.8317 20.7043 30.3566L20.701 30.3722ZM82.9669 33.4626C83.374 35.2219 82.9669 36.9624 81.1329 37.1749L78.097 37.7624V80.5163C75.4487 81.885 73.0252 82.6662 71.0056 82.6662C67.7481 82.6662 66.9338 81.6881 64.507 78.7758L44.6236 48.8305V77.8008L50.917 79.1695C50.917 79.1695 50.917 82.6693 45.8451 82.6693L31.8479 83.4505C31.4408 82.6693 31.8479 80.7163 33.2747 80.3413L36.923 79.3632V41.0685L31.8512 40.6779C31.444 38.9186 32.4636 36.3968 35.2943 36.2031L50.3078 35.225L71.0056 65.5609V38.7217L65.7285 38.1343C65.3213 36.0031 66.9338 34.4407 68.9697 34.2595L82.9669 33.4626ZM6.29662 4.31423L64.0998 0.230074C71.1912 -0.357394 73.0252 0.0332095 77.4846 3.14241L95.9445 15.5917C98.9804 17.7229 100 18.3103 100 20.6383V88.8815C100 93.1625 98.3713 95.6842 92.7033 96.0748L25.5513 99.9652C21.3101 100.162 19.2742 99.5746 17.0331 96.856L3.44311 79.9288C1.01632 76.8196 0 74.4916 0 71.7762V11.1201C0 7.62029 1.62872 4.70795 6.29336 4.31735L6.29662 4.31423Z" fill="black"/>
</svg>
