<svg width="100" height="100" viewBox="0 0 100 100" fill="none" xmlns="http://www.w3.org/2000/svg">
<path d="M0 12.5C0 15.8152 1.31696 18.9946 3.66116 21.3388C6.00537 23.683 9.18479 25 12.5 25C15.8152 25 18.9946 23.683 21.3388 21.3388C23.683 18.9946 25 15.8152 25 12.5C25 9.18479 23.683 6.00537 21.3388 3.66116C18.9946 1.31696 15.8152 0 12.5 0C9.18479 0 6.00537 1.31696 3.66116 3.66116C1.31696 6.00537 0 9.18479 0 12.5ZM37.5 87.5C37.5 90.8152 38.817 93.9946 41.1612 96.3388C43.5054 98.683 46.6848 100 50 100C53.3152 100 56.4946 98.683 58.8388 96.3388C61.183 93.9946 62.5 90.8152 62.5 87.5C62.5 84.1848 61.183 81.0054 58.8388 78.6612C56.4946 76.317 53.3152 75 50 75C46.6848 75 43.5054 76.317 41.1612 78.6612C38.817 81.0054 37.5 84.1848 37.5 87.5ZM37.5 50C37.5 53.3152 38.817 56.4946 41.1612 58.8388C43.5054 61.183 46.6848 62.5 50 62.5C53.3152 62.5 56.4946 61.183 58.8388 58.8388C61.183 56.4946 62.5 53.3152 62.5 50C62.5 46.6848 61.183 43.5054 58.8388 41.1612C56.4946 38.817 53.3152 37.5 50 37.5C46.6848 37.5 43.5054 38.817 41.1612 41.1612C38.817 43.5054 37.5 46.6848 37.5 50ZM37.5 12.5C37.5 15.8152 38.817 18.9946 41.1612 21.3388C43.5054 23.683 46.6848 25 50 25C53.3152 25 56.4946 23.683 58.8388 21.3388C61.183 18.9946 62.5 15.8152 62.5 12.5C62.5 9.18479 61.183 6.00537 58.8388 3.66116C56.4946 1.31696 53.3152 0 50 0C46.6848 0 43.5054 1.31696 41.1612 3.66116C38.817 6.00537 37.5 9.18479 37.5 12.5ZM75 12.5C75 15.8152 76.317 18.9946 78.6612 21.3388C81.0054 23.683 84.1848 25 87.5 25C90.8152 25 93.9946 23.683 96.3388 21.3388C98.683 18.9946 100 15.8152 100 12.5C100 9.18479 98.683 6.00537 96.3388 3.66116C93.9946 1.31696 90.8152 0 87.5 0C84.1848 0 81.0054 1.31696 78.6612 3.66116C76.317 6.00537 75 9.18479 75 12.5Z" fill="black"/>
</svg>
